<svg xmlns="http://www.w3.org/2000/svg" viewBox="0 0 400 400" width="400" height="400">
  <!-- Face Circle -->
  <circle cx="200" cy="200" r="180" fill="#FFEB3B" stroke="#FBC02D" stroke-width="10"/>

  <!-- Left Eye -->
  <ellipse cx="140" cy="160" rx="30" ry="20" fill="white" stroke="#333" stroke-width="3"/>
  <circle cx="140" cy="160" r="10" fill="#333"/>

  <!-- Right Eye -->
  <ellipse cx="260" cy="160" rx="30" ry="20" fill="white" stroke="#333" stroke-width="3"/>
  <circle cx="260" cy="160" r="10" fill="#333"/>

  <!-- Drooping Eyebrows -->
  <path d="M 100 130 Q 140 110 180 130" stroke="#333" stroke-width="5" fill="transparent"/>
  <path d="M 220 130 Q 260 110 300 130" stroke="#333" stroke-width="5" fill="transparent"/>

  <!-- Sad Mouth -->
  <path d="M 130 280 Q 200 220 270 280" stroke="#333" stroke-width="8" fill="transparent" />

  <!-- Tears -->
  <path d="M 130 180 C 125 220 145 240 150 220" fill="blue" fill-opacity="0.6"/>
  <path d="M 270 180 C 265 220 285 240 290 220" fill="blue" fill-opacity="0.6"/>

  <!-- Cheek Shading for Depth -->
  <defs>
    <radialGradient id="cheekGradient" cx="50%" cy="50%" r="50%">
      <stop offset="0%" style="stop-color:rgba(255,153,102,0.4);stop-opacity:0.4" />
      <stop offset="100%" style="stop-color:rgba(255,153,102,0);stop-opacity:0" />
    </radialGradient>
  </defs>
  <ellipse cx="140" cy="250" rx="50" ry="30" fill="url(#cheekGradient)" />
  <ellipse cx="260" cy="250" rx="50" ry="30" fill="url(#cheekGradient)" />
</svg>
